<svg xmlns="http://www.w3.org/2000/svg" viewBox="0 0 352.54 121.36"><defs><style>.cls-1{fill:none;}.cls-2{fill:#01448c;}.cls-3{fill:#0386d1;}</style></defs><title>Asset 1</title><g id="Layer_2" data-name="Layer 2"><g id="Layer_2-2" data-name="Layer 2"><path class="cls-1" d="M80.88,65.94A19.87,19.87,0,1,0,100.75,85.8,20,20,0,0,0,80.88,65.94Z"/><path class="cls-1" d="M157.3,87.76a13.61,13.61,0,0,0-6.67-1.4h-5.3v23h5.3A13.74,13.74,0,0,0,157.3,108a7.83,7.83,0,0,0,3.55-3.94,15.91,15.91,0,0,0,1.07-6.1,16.32,16.32,0,0,0-1.07-6.21A7.91,7.91,0,0,0,157.3,87.76Z"/><path class="cls-1" d="M194.67,68.78a6.42,6.42,0,0,0,3.27.88,6.5,6.5,0,0,0,5.83-3.5,8.93,8.93,0,0,0,1-4.34,9,9,0,0,0-.94-4.33,6.4,6.4,0,0,0-2.47-2.62A6.52,6.52,0,0,0,198,54a6.5,6.5,0,0,0-5.84,3.5,10.37,10.37,0,0,0,0,8.67A6.62,6.62,0,0,0,194.67,68.78Z"/><path class="cls-1" d="M180.28,94.41a7,7,0,0,0-4.44,1.52,6.09,6.09,0,0,0-2.22,4.43h13A5.86,5.86,0,0,0,184.69,96,6.38,6.38,0,0,0,180.28,94.41Z"/><path class="cls-1" d="M223.8,94.41a6.94,6.94,0,0,0-4.43,1.52,6.1,6.1,0,0,0-2.23,4.43h13A5.89,5.89,0,0,0,228.22,96,6.42,6.42,0,0,0,223.8,94.41Z"/><path class="cls-1" d="M286.44,95.3a7.34,7.34,0,0,0-7.33,0,6.88,6.88,0,0,0-2.5,2.73,9.6,9.6,0,0,0,0,8.16,6.88,6.88,0,0,0,2.5,2.73,6.92,6.92,0,0,0,9.83-2.73,9.51,9.51,0,0,0,0-8.16A6.81,6.81,0,0,0,286.44,95.3Z"/><path class="cls-1" d="M260.25,95.15a6.55,6.55,0,0,0-9.13,2.63,10.34,10.34,0,0,0,0,8.66,6.58,6.58,0,0,0,2.48,2.63,6.51,6.51,0,0,0,3.27.87,6.65,6.65,0,0,0,3.33-.87,6.49,6.49,0,0,0,2.5-2.63,8.89,8.89,0,0,0,1-4.33,9,9,0,0,0-.94-4.33A6.42,6.42,0,0,0,260.25,95.15Z"/><path class="cls-1" d="M307.56,94.41a7,7,0,0,0-4.44,1.52,6.14,6.14,0,0,0-2.23,4.43h13A5.86,5.86,0,0,0,312,96,6.38,6.38,0,0,0,307.56,94.41Z"/><rect class="cls-2" x="142.33" y="43.36" width="3" height="29"/><path class="cls-2" d="M170.33,72.36V60.09c0-3.14-.74-5.46-2.24-7a8,8,0,0,0-6-2.26A8.36,8.36,0,0,0,157.74,52a7.67,7.67,0,0,0-3,3.13l-.21-3.77h-3.25v21h4V61.66a7.69,7.69,0,0,1,1.85-5.52,6.09,6.09,0,0,1,4.61-1.94q5.53,0,5.54,6.46v11.7Z"/><path class="cls-2" d="M176.33,72.36h4v-18h5v-3h-5V48s0-1.75.45-2.18a2.48,2.48,0,0,1,2.25-.45h1.3v-3H182a6,6,0,0,0-4.2,1.33,5.48,5.48,0,0,0-1.44,4.22v3.45h-3v3h3Z"/><path class="cls-2" d="M197.94,72.66a10.48,10.48,0,0,0,5.27-1.34,9.66,9.66,0,0,0,3.73-3.77,12.73,12.73,0,0,0,0-11.45,9.56,9.56,0,0,0-3.69-3.77A10.34,10.34,0,0,0,198,51a10.48,10.48,0,0,0-5.27,1.34A9.73,9.73,0,0,0,189,56.1a11.4,11.4,0,0,0-1.38,5.72A11.62,11.62,0,0,0,189,67.55a9.54,9.54,0,0,0,3.68,3.77A10.41,10.41,0,0,0,197.94,72.66Zm-6.7-10.84a9,9,0,0,1,.95-4.33A6.5,6.5,0,0,1,198,54a6.52,6.52,0,0,1,3.29.88,6.4,6.4,0,0,1,2.47,2.62,9,9,0,0,1,.94,4.33,8.93,8.93,0,0,1-1,4.34,6.5,6.5,0,0,1-5.83,3.5,6.42,6.42,0,0,1-3.27-.88,6.62,6.62,0,0,1-2.48-2.62A9,9,0,0,1,191.24,61.82Z"/><path class="cls-2" d="M151.24,83.36h-8.91v29h8.91q7.66,0,11.28-3.87T166.15,98q0-6.8-3.63-10.69T151.24,83.36Zm9.61,20.69A7.83,7.83,0,0,1,157.3,108a13.74,13.74,0,0,1-6.67,1.37h-5.3v-23h5.3a13.61,13.61,0,0,1,6.67,1.4,7.91,7.91,0,0,1,3.55,4A16.32,16.32,0,0,1,161.92,98,15.91,15.91,0,0,1,160.85,104.05Z"/><path class="cls-2" d="M185.55,92.63a9.69,9.69,0,0,0-5.19-1.35A10.42,10.42,0,0,0,175,92.63a9.46,9.46,0,0,0-3.6,3.79,12,12,0,0,0-1.29,5.69,11.83,11.83,0,0,0,1.31,5.71,9.54,9.54,0,0,0,3.6,3.77,10.16,10.16,0,0,0,5.25,1.35,9.32,9.32,0,0,0,6-1.89,9.45,9.45,0,0,0,3.18-4.69H186A5.93,5.93,0,0,1,183.9,109a6.3,6.3,0,0,1-3.62,1,6.52,6.52,0,0,1-3.14-.8,6.43,6.43,0,0,1-2.46-2.35,8,8,0,0,1-1.11-3.48H190c0-.85,0-1.19,0-1.5s0-.61,0-.92a10,10,0,0,0-1.17-4.74A9.18,9.18,0,0,0,185.55,92.63Zm-11.93,7.73a6.09,6.09,0,0,1,2.22-4.43,7,7,0,0,1,4.44-1.52A6.38,6.38,0,0,1,184.69,96a5.86,5.86,0,0,1,1.92,4.37Z"/><polygon class="cls-2" points="201.85 108.93 195.55 91.36 191.82 91.36 199.78 112.36 203.89 112.36 211.84 91.36 208.2 91.36 201.85 108.93"/><path class="cls-2" d="M229.07,92.63a9.66,9.66,0,0,0-5.18-1.35,10.46,10.46,0,0,0-5.36,1.35,9.46,9.46,0,0,0-3.6,3.79,12,12,0,0,0-1.29,5.69,11.83,11.83,0,0,0,1.31,5.71,9.63,9.63,0,0,0,3.61,3.77,10.1,10.1,0,0,0,5.24,1.35,9.3,9.3,0,0,0,6-1.89,9.54,9.54,0,0,0,3.19-4.69h-3.46a5.91,5.91,0,0,1-2.12,2.63,6.33,6.33,0,0,1-3.63,1,6.52,6.52,0,0,1-3.14-.8,6.43,6.43,0,0,1-2.46-2.35,7.89,7.89,0,0,1-1.1-3.48h16.45c0-.85,0-1.19,0-1.5s0-.61,0-.92a10,10,0,0,0-1.17-4.74A9.11,9.11,0,0,0,229.07,92.63Zm-11.93,7.73a6.1,6.1,0,0,1,2.23-4.43,6.94,6.94,0,0,1,4.43-1.52A6.42,6.42,0,0,1,228.22,96a5.89,5.89,0,0,1,1.91,4.37Z"/><rect class="cls-2" x="238.33" y="82.36" width="3" height="30"/><path class="cls-2" d="M262.2,92.61a11,11,0,0,0-10.51,0A9.72,9.72,0,0,0,248,96.38a11.46,11.46,0,0,0-1.38,5.73,11.64,11.64,0,0,0,1.36,5.73,9.67,9.67,0,0,0,3.68,3.77,11.07,11.07,0,0,0,10.52,0,9.79,9.79,0,0,0,3.73-3.77,11.54,11.54,0,0,0,1.37-5.73,11.67,11.67,0,0,0-1.35-5.73A9.63,9.63,0,0,0,262.2,92.61Zm.5,13.83a6.49,6.49,0,0,1-2.5,2.63,6.65,6.65,0,0,1-3.33.87,6.51,6.51,0,0,1-3.27-.87,6.58,6.58,0,0,1-2.48-2.63,10.34,10.34,0,0,1,0-8.66,6.63,6.63,0,0,1,9.13-2.63,6.42,6.42,0,0,1,2.47,2.63,9,9,0,0,1,.94,4.33A8.89,8.89,0,0,1,262.7,106.44Z"/><path class="cls-2" d="M288.57,92.7a10,10,0,0,0-5.38-1.42,8.44,8.44,0,0,0-4.72,1.21,9.71,9.71,0,0,0-2.86,2.71l-.33-3.84h-2.95v30h3V109a10.12,10.12,0,0,0,3.3,2.91,9.51,9.51,0,0,0,4.52,1,10.26,10.26,0,0,0,5.4-1.39,9.54,9.54,0,0,0,3.58-3.84,11.9,11.9,0,0,0,1.27-5.56,12.07,12.07,0,0,0-1.27-5.58A9.71,9.71,0,0,0,288.57,92.7Zm.37,13.49a6.81,6.81,0,0,1-2.5,2.73,7.34,7.34,0,0,1-7.33,0,6.88,6.88,0,0,1-2.5-2.73,9.6,9.6,0,0,1,0-8.16,6.69,6.69,0,0,1,6.17-3.71A6.69,6.69,0,0,1,288.94,98a9.51,9.51,0,0,1,0,8.16Z"/><path class="cls-2" d="M312.83,92.63a9.69,9.69,0,0,0-5.19-1.35,10.4,10.4,0,0,0-5.35,1.35,9.46,9.46,0,0,0-3.6,3.79,12,12,0,0,0-1.29,5.69,11.72,11.72,0,0,0,1.31,5.71,9.54,9.54,0,0,0,3.6,3.77,10.16,10.16,0,0,0,5.25,1.35,9.32,9.32,0,0,0,6-1.89,9.52,9.52,0,0,0,3.18-4.69h-3.45a6,6,0,0,1-2.13,2.63,6.3,6.3,0,0,1-3.62,1,6.58,6.58,0,0,1-3.15-.8,6.47,6.47,0,0,1-2.45-2.35,7.9,7.9,0,0,1-1.11-3.48H317.3c0-.85,0-1.19,0-1.5s0-.61,0-.92a10,10,0,0,0-1.17-4.74A9.26,9.26,0,0,0,312.83,92.63Zm-11.94,7.73a6.14,6.14,0,0,1,2.23-4.43,7,7,0,0,1,4.44-1.52A6.38,6.38,0,0,1,312,96a5.86,5.86,0,0,1,1.92,4.37Z"/><path class="cls-2" d="M325.29,95.11l-.3-3.75h-2.66v21h3V101.08a7.35,7.35,0,0,1,.95-4A5.2,5.2,0,0,1,328.84,95a9.64,9.64,0,0,1,3.5-.62h1V90.89a10,10,0,0,0-5,1.15A7.34,7.34,0,0,0,325.29,95.11Z"/><path class="cls-2" d="M351.48,102.6a6.46,6.46,0,0,0-2.7-1.71,30.17,30.17,0,0,0-3.49-1,13.65,13.65,0,0,1-3.4-1.15,2.08,2.08,0,0,1-1.25-1.87,2.38,2.38,0,0,1,1-2,4.39,4.39,0,0,1,2.77-.76,4.61,4.61,0,0,1,2.92.86,3.47,3.47,0,0,1,1.3,2.36h3.3a6.25,6.25,0,0,0-2.33-4.47,8.11,8.11,0,0,0-5.15-1.58A7.82,7.82,0,0,0,339.18,93a5.37,5.37,0,0,0-1.93,4.24,3.93,3.93,0,0,0,1.08,2.89,7.22,7.22,0,0,0,2.67,1.69,20,20,0,0,0,3.18.92,17.27,17.27,0,0,1,3.64,1.07,2.37,2.37,0,0,1,1.29,2.39,2.79,2.79,0,0,1-1,2.13,4.53,4.53,0,0,1-3.11.9,5.36,5.36,0,0,1-3.6-1.14,4.67,4.67,0,0,1-1.65-2.69h-3.42a6.94,6.94,0,0,0,2.75,4.86A9.37,9.37,0,0,0,345,112a8.36,8.36,0,0,0,5.55-1.73,5.43,5.43,0,0,0,2-4.4A4.65,4.65,0,0,0,351.48,102.6Z"/><path class="cls-2" d="M114.45,83.25q-4-6.28-7.94-12.57c-4.2-6.6-8.42-13.17-12.61-19.78C89.58,44.1,85.3,37.27,81,30.46q-4.65-7.37-9.32-14.72c-1.82-2.88-3.55-5.82-5.46-8.64A60.72,60.72,0,0,0,61.9,1.54,4.27,4.27,0,0,0,56.39.63a4.38,4.38,0,0,0-2.07,4.1q0,53.32,0,106.66v1h.83c17,0,33.94,0,50.9,0a12.84,12.84,0,0,0,10.81-6,16.73,16.73,0,0,0,2.23-13.82C118.17,89.14,116.31,86.2,114.45,83.25ZM80.9,105.67A19.87,19.87,0,1,1,100.75,85.8,20,20,0,0,1,80.9,105.67Z"/><path class="cls-3" d="M47.33,33.92a3.43,3.43,0,0,0-2.12-3A2.88,2.88,0,0,0,41.82,32c-.91,1.18-1.73,2.44-2.53,3.7Q35.38,41.81,31.49,48L21.9,63.3c-2.15,3.42-4.31,6.84-6.45,10.27C12.26,78.65,9.07,83.71,5.91,88.8,4.25,91.49,2.55,94.16,1.08,97c-3.19,6,.88,15.19,9.82,15.36,11.81.23,23.62,0,35.42,0h1v-78C47.33,34.23,47.34,34.08,47.33,33.92Z"/><path class="cls-2" d="M40.54,12.75a7.27,7.27,0,1,0,7.25,7.36A7.22,7.22,0,0,0,40.54,12.75Z"/></g></g></svg>